STARTFONT 2.1
COMMENT $XConsortium: luBIS14.bdf,v 1.8 94/04/02 15:58:33 gildea Exp $
COMMENT  (c) Copyright Bigelow & Holmes 1986, 1985. Lucida is a registered
COMMENT  trademark of Bigelow & Holmes. See LEGAL NOTICE file for terms 
COMMENT  of the license. 
COMMENT GRID 0014 0014 0200 0200
FONT -RFX-Serene-Bold-I-Normal-Sans-14-140-75-75-P-92-windows-1251
SIZE 14 72 72
FONTBOUNDINGBOX 18 15 -1 -2
STARTPROPERTIES 24
FONTNAME_REGISTRY ""
FOUNDRY "RFX"
FAMILY_NAME "Serene"
WEIGHT_NAME "Bold"
SLANT "I"
SETWIDTH_NAME "Normal"
ADD_STYLE_NAME "Sans"
PIXEL_SIZE 14
POINT_SIZE 140
RESOLUTION_X 75
RESOLUTION_Y 75
SPACING "P"
AVERAGE_WIDTH 92
CHARSET_REGISTRY "windows"
CHARSET_ENCODING "1251"
FONT_ASCENT 13
FONT_DESCENT 2
DEFAULT_CHAR 32
COPYRIGHT "Copyright Bigelow & Holmes 1986, 1985."
FACE_NAME "Lucida Sans Bold Italic"
COPYRIGHT2 "Cyrillic and Euro glyphs copyright 2000 Dmitry Yu. Bolkhovityanov, bolkhov@inp.nsk.su"
SOURCEDATE "Sat Jul 22 15:22:44 2000"
PKGVERSION "1.1"
ASSEMBLER "cvtbdf.pl (Linux)"
ENDPROPERTIES
CHARS 244
STARTCHAR space
ENCODING 32
SWIDTH 343 0
DWIDTH 4 0
BBX 0 0 0 0
BITMAP
ENDCHAR
STARTCHAR exclam
ENCODING 33
SWIDTH 343 0
DWIDTH 4 0
BBX 4 10 0 0
BITMAP
30
30
30
60
60
60
40
00
C0
C0
ENDCHAR
STARTCHAR quotedbl
ENCODING 34
SWIDTH 530 0
DWIDTH 8 0
BBX 6 4 2 7
BITMAP
6C
6C
D8
D8
ENDCHAR
STARTCHAR numbersign
ENCODING 35
SWIDTH 687 0
DWIDTH 10 0
BBX 9 10 1 0
BITMAP
1B00
1B00
1B00
7F80
3600
3600
FF00
6C00
6C00
6C00
ENDCHAR
STARTCHAR dollar
ENCODING 36
SWIDTH 687 0
DWIDTH 10 0
BBX 8 12 1 -1
BITMAP
08
3E
6B
68
70
38
1C
0E
16
D6
7C
10
ENDCHAR
STARTCHAR percent
ENCODING 37
SWIDTH 908 0
DWIDTH 12 0
BBX 10 10 1 0
BITMAP
30C0
D980
DB00
6200
0400
0800
1180
36C0
66C0
C300
ENDCHAR
STARTCHAR ampersand
ENCODING 38
SWIDTH 816 0
DWIDTH 11 0
BBX 9 10 1 0
BITMAP
1E00
3300
3300
1600
3800
5980
CD80
CD00
E600
7B00
ENDCHAR
STARTCHAR quotesingle
ENCODING 39
SWIDTH 265 0
DWIDTH 4 0
BBX 3 4 1 7
BITMAP
60
60
C0
C0
ENDCHAR
STARTCHAR parenleft
ENCODING 40
SWIDTH 386 0
DWIDTH 6 0
BBX 5 12 1 -1
BITMAP
18
30
60
60
C0
C0
C0
C0
C0
C0
60
30
ENDCHAR
STARTCHAR parenright
ENCODING 41
SWIDTH 386 0
DWIDTH 6 0
BBX 5 12 0 -1
BITMAP
60
30
18
18
18
18
18
18
30
30
60
C0
ENDCHAR
STARTCHAR asterisk
ENCODING 42
SWIDTH 464 0
DWIDTH 7 0
BBX 6 6 1 4
BITMAP
10
54
38
70
A8
20
ENDCHAR
STARTCHAR plus
ENCODING 43
SWIDTH 687 0
DWIDTH 10 0
BBX 7 7 1 1
BITMAP
08
08
10
FE
10
20
20
ENDCHAR
STARTCHAR comma
ENCODING 44
SWIDTH 343 0
DWIDTH 4 0
BBX 3 4 0 -2
BITMAP
60
60
40
80
ENDCHAR
STARTCHAR minus
ENCODING 45
SWIDTH 687 0
DWIDTH 9 0
BBX 7 1 1 4
BITMAP
FE
ENDCHAR
STARTCHAR period
ENCODING 46
SWIDTH 343 0
DWIDTH 4 0
BBX 2 2 1 0
BITMAP
C0
C0
ENDCHAR
STARTCHAR slash
ENCODING 47
SWIDTH 596 0
DWIDTH 9 0
BBX 9 12 0 -1
BITMAP
0180
0300
0300
0600
0C00
0C00
1800
1800
3000
6000
6000
C000
ENDCHAR
STARTCHAR zero
ENCODING 48
SWIDTH 687 0
DWIDTH 10 0
BBX 8 10 1 0
BITMAP
1E
33
63
63
63
C6
C6
C6
CC
78
ENDCHAR
STARTCHAR one
ENCODING 49
SWIDTH 687 0
DWIDTH 10 0
BBX 4 10 3 0
BITMAP
30
F0
30
30
30
60
60
60
60
60
ENDCHAR
STARTCHAR two
ENCODING 50
SWIDTH 687 0
DWIDTH 10 0
BBX 8 10 1 0
BITMAP
3E
43
03
03
06
1C
30
C0
FE
FE
ENDCHAR
STARTCHAR three
ENCODING 51
SWIDTH 687 0
DWIDTH 10 0
BBX 8 10 1 0
BITMAP
3E
43
03
06
3C
06
06
06
8C
78
ENDCHAR
STARTCHAR four
ENCODING 52
SWIDTH 687 0
DWIDTH 10 0
BBX 8 10 1 0
BITMAP
0E
16
26
46
86
8C
FF
0C
0C
0C
ENDCHAR
STARTCHAR five
ENCODING 53
SWIDTH 687 0
DWIDTH 10 0
BBX 8 10 1 0
BITMAP
3F
3F
20
40
7C
0E
06
06
8C
78
ENDCHAR
STARTCHAR six
ENCODING 54
SWIDTH 687 0
DWIDTH 10 0
BBX 8 10 1 0
BITMAP
1E
33
60
60
7C
C6
C6
C6
CC
78
ENDCHAR
STARTCHAR seven
ENCODING 55
SWIDTH 687 0
DWIDTH 10 0
BBX 8 10 1 0
BITMAP
7F
7F
03
06
0C
18
30
60
C0
C0
ENDCHAR
STARTCHAR eight
ENCODING 56
SWIDTH 687 0
DWIDTH 10 0
BBX 8 10 1 0
BITMAP
3E
63
63
73
3A
5C
CE
C6
C6
7C
ENDCHAR
STARTCHAR nine
ENCODING 57
SWIDTH 687 0
DWIDTH 10 0
BBX 8 10 1 0
BITMAP
1E
33
63
63
63
3E
06
06
CC
78
ENDCHAR
STARTCHAR colon
ENCODING 58
SWIDTH 343 0
DWIDTH 4 0
BBX 3 7 0 0
BITMAP
60
60
00
00
00
C0
C0
ENDCHAR
STARTCHAR semicolon
ENCODING 59
SWIDTH 343 0
DWIDTH 4 0
BBX 4 9 -1 -2
BITMAP
30
30
00
00
00
60
60
40
80
ENDCHAR
STARTCHAR less
ENCODING 60
SWIDTH 687 0
DWIDTH 10 0
BBX 7 7 1 1
BITMAP
06
1C
70
C0
60
30
18
ENDCHAR
STARTCHAR equal
ENCODING 61
SWIDTH 687 0
DWIDTH 10 0
BBX 7 3 1 3
BITMAP
7E
00
FC
ENDCHAR
STARTCHAR greater
ENCODING 62
SWIDTH 687 0
DWIDTH 10 0
BBX 7 7 1 1
BITMAP
30
18
0C
06
1C
70
C0
ENDCHAR
STARTCHAR question
ENCODING 63
SWIDTH 539 0
DWIDTH 8 0
BBX 6 10 1 0
BITMAP
78
CC
0C
1C
38
60
40
00
C0
C0
ENDCHAR
STARTCHAR at
ENCODING 64
SWIDTH 833 0
DWIDTH 13 0
BBX 10 10 1 0
BITMAP
0F00
3080
40C0
47C0
8CC0
9980
9980
8EC0
4000
3F00
ENDCHAR
STARTCHAR A
ENCODING 65
SWIDTH 771 0
DWIDTH 11 0
BBX 9 10 0 0
BITMAP
0180
0380
0780
0D80
1980
3180
3F80
6180
C180
C180
ENDCHAR
STARTCHAR B
ENCODING 66
SWIDTH 660 0
DWIDTH 10 0
BBX 9 10 1 0
BITMAP
7F00
6180
6180
6300
7E00
C300
C300
C300
C600
FC00
ENDCHAR
STARTCHAR C
ENCODING 67
SWIDTH 737 0
DWIDTH 11 0
BBX 10 10 1 0
BITMAP
0F80
30C0
6000
6000
C000
C000
C000
C000
E300
7E00
ENDCHAR
STARTCHAR D
ENCODING 68
SWIDTH 822 0
DWIDTH 12 0
BBX 10 10 1 0
BITMAP
7F80
61C0
60C0
60C0
60C0
C0C0
C180
C180
C300
FE00
ENDCHAR
STARTCHAR E
ENCODING 69
SWIDTH 642 0
DWIDTH 9 0
BBX 8 10 1 0
BITMAP
7F
60
60
60
7E
C0
C0
C0
C0
FE
ENDCHAR
STARTCHAR F
ENCODING 70
SWIDTH 614 0
DWIDTH 9 0
BBX 8 10 1 0
BITMAP
7F
60
60
60
7E
C0
C0
C0
C0
C0
ENDCHAR
STARTCHAR G
ENCODING 71
SWIDTH 755 0
DWIDTH 11 0
BBX 10 10 1 0
BITMAP
0F80
30C0
6000
6000
C000
C000
C180
C180
E300
7F00
ENDCHAR
STARTCHAR H
ENCODING 72
SWIDTH 813 0
DWIDTH 12 0
BBX 10 10 1 0
BITMAP
60C0
60C0
60C0
60C0
7FC0
C180
C180
C180
C180
C180
ENDCHAR
STARTCHAR I
ENCODING 73
SWIDTH 361 0
DWIDTH 5 0
BBX 3 10 1 0
BITMAP
60
60
60
60
60
C0
C0
C0
C0
C0
ENDCHAR
STARTCHAR J
ENCODING 74
SWIDTH 502 0
DWIDTH 7 0
BBX 6 12 0 -2
BITMAP
0C
0C
0C
0C
0C
18
18
18
18
18
30
E0
ENDCHAR
STARTCHAR K
ENCODING 75
SWIDTH 753 0
DWIDTH 11 0
BBX 9 10 1 0
BITMAP
6180
6300
6600
6C00
7800
D800
CC00
C600
C300
C180
ENDCHAR
STARTCHAR L
ENCODING 76
SWIDTH 623 0
DWIDTH 9 0
BBX 7 10 1 0
BITMAP
60
60
60
60
60
C0
C0
C0
C0
FE
ENDCHAR
STARTCHAR M
ENCODING 77
SWIDTH 940 0
DWIDTH 14 0
BBX 12 10 1 0
BITMAP
78F0
58B0
58B0
5930
4D30
8E60
8E60
8C60
8C60
8060
ENDCHAR
STARTCHAR N
ENCODING 78
SWIDTH 789 0
DWIDTH 11 0
BBX 9 10 1 0
BITMAP
7080
7080
5880
5880
5880
8D00
8D00
8D00
8700
8700
ENDCHAR
STARTCHAR O
ENCODING 79
SWIDTH 855 0
DWIDTH 12 0
BBX 10 10 1 0
BITMAP
0F80
31C0
60C0
60C0
C0C0
C0C0
C180
C180
E300
7C00
ENDCHAR
STARTCHAR P
ENCODING 80
SWIDTH 645 0
DWIDTH 9 0
BBX 8 10 1 0
BITMAP
7E
63
63
63
62
FC
C0
C0
C0
C0
ENDCHAR
STARTCHAR Q
ENCODING 81
SWIDTH 855 0
DWIDTH 12 0
BBX 10 12 1 -2
BITMAP
0F80
31C0
60C0
60C0
C0C0
C0C0
C180
C180
E300
7C00
0600
0300
ENDCHAR
STARTCHAR R
ENCODING 82
SWIDTH 708 0
DWIDTH 10 0
BBX 9 10 1 0
BITMAP
7E00
6300
6300
6300
6600
FC00
C600
C600
C300
C380
ENDCHAR
STARTCHAR S
ENCODING 83
SWIDTH 639 0
DWIDTH 10 0
BBX 8 10 1 0
BITMAP
3E
63
60
70
38
1C
0E
06
C6
7C
ENDCHAR
STARTCHAR T
ENCODING 84
SWIDTH 747 0
DWIDTH 10 0
BBX 9 10 1 0
BITMAP
FF80
1800
1800
1800
1800
3000
3000
3000
3000
3000
ENDCHAR
STARTCHAR U
ENCODING 85
SWIDTH 759 0
DWIDTH 11 0
BBX 9 10 1 0
BITMAP
6180
6180
6180
6180
C300
C300
C300
C300
6600
3C00
ENDCHAR
STARTCHAR V
ENCODING 86
SWIDTH 765 0
DWIDTH 11 0
BBX 9 10 2 0
BITMAP
C180
C180
C300
C300
C600
CC00
D800
F000
E000
C000
ENDCHAR
STARTCHAR W
ENCODING 87
SWIDTH 991 0
DWIDTH 15 0
BBX 13 10 2 0
BITMAP
C018
C618
C630
C630
CE60
CE60
D6C0
D680
E700
C600
ENDCHAR
STARTCHAR X
ENCODING 88
SWIDTH 696 0
DWIDTH 10 0
BBX 10 10 0 0
BITMAP
30C0
30C0
1980
1B00
0C00
0C00
3600
6600
C300
C300
ENDCHAR
STARTCHAR Y
ENCODING 89
SWIDTH 681 0
DWIDTH 10 0
BBX 8 10 2 0
BITMAP
C3
C3
C6
CC
D0
60
60
60
60
60
ENDCHAR
STARTCHAR Z
ENCODING 90
SWIDTH 687 0
DWIDTH 9 0
BBX 9 10 0 0
BITMAP
3F80
0380
0700
0E00
0C00
1800
3800
7000
E000
FE00
ENDCHAR
STARTCHAR bracketleft
ENCODING 91
SWIDTH 386 0
DWIDTH 6 0
BBX 6 12 0 -1
BITMAP
3C
30
30
30
60
60
60
60
C0
C0
C0
F0
ENDCHAR
STARTCHAR backslash
ENCODING 92
SWIDTH 566 0
DWIDTH 8 0
BBX 4 12 2 -1
BITMAP
C0
C0
C0
C0
60
60
60
60
30
30
30
30
ENDCHAR
STARTCHAR bracketright
ENCODING 93
SWIDTH 386 0
DWIDTH 6 0
BBX 6 12 0 -1
BITMAP
3C
0C
0C
0C
18
18
18
18
30
30
30
F0
ENDCHAR
STARTCHAR asciicircum
ENCODING 94
SWIDTH 687 0
DWIDTH 10 0
BBX 6 7 2 3
BITMAP
0C
1C
34
24
64
C4
84
ENDCHAR
STARTCHAR underscore
ENCODING 95
SWIDTH 500 0
DWIDTH 11 0
BBX 9 1 1 -1
BITMAP
FF80
ENDCHAR
STARTCHAR grave
ENCODING 96
SWIDTH 663 0
DWIDTH 10 0
BBX 5 2 4 9
BITMAP
E0
38
ENDCHAR
STARTCHAR a
ENCODING 97
SWIDTH 681 0
DWIDTH 10 0
BBX 8 8 1 0
BITMAP
1F
63
63
C3
C6
CE
D6
66
ENDCHAR
STARTCHAR b
ENCODING 98
SWIDTH 681 0
DWIDTH 10 0
BBX 8 11 1 0
BITMAP
30
30
30
66
6B
73
63
C3
C6
C6
F8
ENDCHAR
STARTCHAR c
ENCODING 99
SWIDTH 548 0
DWIDTH 8 0
BBX 7 8 1 0
BITMAP
1E
60
60
C0
C0
C0
C4
78
ENDCHAR
STARTCHAR d
ENCODING 100
SWIDTH 681 0
DWIDTH 10 0
BBX 9 11 1 0
BITMAP
0180
0180
0180
1F00
6300
6300
C300
C600
CE00
D600
6600
ENDCHAR
STARTCHAR e
ENCODING 101
SWIDTH 612 0
DWIDTH 9 0
BBX 7 8 1 0
BITMAP
1C
66
46
CC
F0
C0
C4
78
ENDCHAR
STARTCHAR f
ENCODING 102
SWIDTH 464 0
DWIDTH 7 0
BBX 7 13 1 -2
BITMAP
1E
30
30
FC
60
60
60
60
60
C0
C0
C0
C0
ENDCHAR
STARTCHAR g
ENCODING 103
SWIDTH 674 0
DWIDTH 10 0
BBX 9 10 0 -2
BITMAP
0F80
3180
3180
6180
6300
6700
3B00
0300
C600
7C00
ENDCHAR
STARTCHAR h
ENCODING 104
SWIDTH 675 0
DWIDTH 10 0
BBX 8 11 1 0
BITMAP
30
30
30
6E
73
63
63
C6
C6
C6
C6
ENDCHAR
STARTCHAR i
ENCODING 105
SWIDTH 343 0
DWIDTH 5 0
BBX 4 11 1 0
BITMAP
30
60
00
60
60
60
60
C0
C0
C0
C0
ENDCHAR
STARTCHAR j
ENCODING 106
SWIDTH 407 0
DWIDTH 5 0
BBX 6 13 -1 -2
BITMAP
0C
18
00
18
18
18
18
30
30
30
30
30
E0
ENDCHAR
STARTCHAR k
ENCODING 107
SWIDTH 666 0
DWIDTH 10 0
BBX 8 11 1 0
BITMAP
30
30
30
63
66
6C
70
D8
CC
C6
C3
ENDCHAR
STARTCHAR l
ENCODING 108
SWIDTH 343 0
DWIDTH 5 0
BBX 4 11 1 0
BITMAP
30
30
30
60
60
60
60
C0
C0
C0
C0
ENDCHAR
STARTCHAR m
ENCODING 109
SWIDTH 991 0
DWIDTH 15 0
BBX 13 8 1 0
BITMAP
6E70
7398
6318
6318
C630
C630
C630
C630
ENDCHAR
STARTCHAR n
ENCODING 110
SWIDTH 675 0
DWIDTH 10 0
BBX 8 8 1 0
BITMAP
6E
73
63
63
C6
C6
C6
C6
ENDCHAR
STARTCHAR o
ENCODING 111
SWIDTH 663 0
DWIDTH 10 0
BBX 8 8 1 0
BITMAP
1E
63
63
C3
C3
C6
C6
78
ENDCHAR
STARTCHAR p
ENCODING 112
SWIDTH 681 0
DWIDTH 10 0
BBX 9 10 0 -2
BITMAP
3700
3980
3180
3180
6180
6300
6300
7C00
C000
C000
ENDCHAR
STARTCHAR q
ENCODING 113
SWIDTH 681 0
DWIDTH 10 0
BBX 8 10 1 -2
BITMAP
3F
63
63
C3
C6
CE
D6
66
0C
0C
ENDCHAR
STARTCHAR r
ENCODING 114
SWIDTH 542 0
DWIDTH 7 0
BBX 6 8 1 0
BITMAP
6C
6C
70
60
C0
C0
C0
C0
ENDCHAR
STARTCHAR s
ENCODING 115
SWIDTH 527 0
DWIDTH 8 0
BBX 6 8 1 0
BITMAP
3C
60
60
70
38
18
18
F0
ENDCHAR
STARTCHAR t
ENCODING 116
SWIDTH 437 0
DWIDTH 6 0
BBX 6 10 1 0
BITMAP
10
30
FC
60
60
60
C0
C0
C0
70
ENDCHAR
STARTCHAR u
ENCODING 117
SWIDTH 675 0
DWIDTH 10 0
BBX 8 8 1 0
BITMAP
63
63
63
63
C6
CE
D6
66
ENDCHAR
STARTCHAR v
ENCODING 118
SWIDTH 630 0
DWIDTH 8 0
BBX 7 8 1 0
BITMAP
C6
C6
C6
C4
C8
D0
E0
C0
ENDCHAR
STARTCHAR w
ENCODING 119
SWIDTH 878 0
DWIDTH 12 0
BBX 11 8 1 0
BITMAP
C060
C660
C660
CE60
D640
D680
E700
C600
ENDCHAR
STARTCHAR x
ENCODING 120
SWIDTH 563 0
DWIDTH 8 0
BBX 8 8 0 0
BITMAP
33
33
32
1C
38
4C
CC
CC
ENDCHAR
STARTCHAR y
ENCODING 121
SWIDTH 633 0
DWIDTH 8 0
BBX 9 10 -1 -2
BITMAP
3180
3180
3180
3100
3200
3400
3800
3000
6000
C000
ENDCHAR
STARTCHAR z
ENCODING 122
SWIDTH 630 0
DWIDTH 8 0
BBX 8 8 0 0
BITMAP
7F
06
0C
18
30
60
C0
FE
ENDCHAR
STARTCHAR braceleft
ENCODING 123
SWIDTH 386 0
DWIDTH 6 0
BBX 6 12 0 -1
BITMAP
0C
18
30
30
30
10
60
10
60
C0
C0
60
ENDCHAR
STARTCHAR bar
ENCODING 124
SWIDTH 259 0
DWIDTH 4 0
BBX 4 12 0 -1
BITMAP
30
30
30
30
60
60
60
60
C0
C0
C0
C0
ENDCHAR
STARTCHAR braceright
ENCODING 125
SWIDTH 386 0
DWIDTH 6 0
BBX 6 12 0 -1
BITMAP
18
0C
0C
18
20
18
20
30
30
30
60
C0
ENDCHAR
STARTCHAR asciitilde
ENCODING 126
SWIDTH 687 0
DWIDTH 10 0
BBX 8 3 1 3
BITMAP
31
7E
8C
ENDCHAR
STARTCHAR afii10051
ENCODING 128
SWIDTH 1000 0
DWIDTH 14 0
BBX 11 10 1 0
BITMAP
FF80
1800
1800
1F80
1CC0
3060
3060
3060
30C0
3380
ENDCHAR
STARTCHAR afii10052
ENCODING 129
SWIDTH 642 0
DWIDTH 9 0
BBX 8 13 1 0
BITMAP
07
1C
00
7F
60
60
60
60
C0
C0
C0
C0
C0
ENDCHAR
STARTCHAR quotesinglbase
ENCODING 130
SWIDTH 265 0
DWIDTH 4 0
BBX 3 4 0 -2
BITMAP
60
60
40
80
ENDCHAR
STARTCHAR afii10100
ENCODING 131
SWIDTH 642 0
DWIDTH 9 0
BBX 7 11 1 0
BITMAP
0E
38
00
3C
46
06
1C
70
C0
C4
78
ENDCHAR
STARTCHAR quotedblbase
ENCODING 132
SWIDTH 530 0
DWIDTH 8 0
BBX 6 4 0 -2
BITMAP
6C
6C
48
90
ENDCHAR
STARTCHAR ellipsis
ENCODING 133
SWIDTH 1000 0
DWIDTH 10 0
BBX 6 2 2 0
BITMAP
CC
CC
ENDCHAR
STARTCHAR dagger
ENCODING 134
SWIDTH 687 0
DWIDTH 10 0
BBX 7 11 2 -1
BITMAP
18
18
18
FE
30
30
30
60
60
60
60
ENDCHAR
STARTCHAR daggerdbl
ENCODING 135
SWIDTH 687 0
DWIDTH 10 0
BBX 8 11 1 -1
BITMAP
0C
0C
0C
7F
18
18
18
FE
30
30
30
ENDCHAR
STARTCHAR Euro
ENCODING 136
SWIDTH 785 0
DWIDTH 11 0
BBX 11 10 0 0
BITMAP
07C0
1860
3000
7F00
6000
FC00
6000
6000
7180
3F00
ENDCHAR
STARTCHAR perthousand
ENCODING 137
SWIDTH 1332 0
DWIDTH 18 0
BBX 16 10 1 0
BITMAP
30C0
D980
DB00
6200
0400
0800
1186
36DB
66DB
C30C
ENDCHAR
STARTCHAR afii10058
ENCODING 138
SWIDTH 1214 0
DWIDTH 17 0
BBX 16 10 0 0
BITMAP
1FE0
1860
1860
1860
187C
30C2
30C3
30C3
60C3
C0FE
ENDCHAR
STARTCHAR guilsinglleft
ENCODING 139
SWIDTH 386 0
DWIDTH 6 0
BBX 5 5 0 2
BITMAP
08
30
C0
60
20
ENDCHAR
STARTCHAR afii10059
ENCODING 140
SWIDTH 1142 0
DWIDTH 16 0
BBX 14 10 1 0
BITMAP
6180
6180
6180
6180
7FF0
C308
C30C
C30C
C30C
C3F8
ENDCHAR
STARTCHAR afii10061
ENCODING 141
SWIDTH 785 0
DWIDTH 11 0
BBX 9 13 1 0
BITMAP
0700
1C00
0000
6180
6300
6600
6C00
7800
D800
CC00
C600
C300
C180
ENDCHAR
STARTCHAR afii10060
ENCODING 142
SWIDTH 1000 0
DWIDTH 14 0
BBX 11 10 1 0
BITMAP
FF80
1800
1800
1F80
1CC0
3060
3060
3060
3060
3060
ENDCHAR
STARTCHAR afii10145
ENCODING 143
SWIDTH 857 0
DWIDTH 12 0
BBX 10 12 1 -2
BITMAP
60C0
60C0
60C0
60C0
60C0
C180
C180
C180
C180
FF80
1800
1800
ENDCHAR
STARTCHAR afii10099
ENCODING 144
SWIDTH 714 0
DWIDTH 10 0
BBX 8 13 1 -2
BITMAP
30
7E
30
6E
73
63
63
C6
C6
C6
CC
0C
18
ENDCHAR
STARTCHAR quoteleft
ENCODING 145
SWIDTH 265 0
DWIDTH 4 0
BBX 3 4 1 7
BITMAP
20
40
C0
C0
ENDCHAR
STARTCHAR quoteright
ENCODING 146
SWIDTH 265 0
DWIDTH 4 0
BBX 3 4 1 7
BITMAP
60
60
40
80
ENDCHAR
STARTCHAR quotedblleft
ENCODING 147
SWIDTH 530 0
DWIDTH 8 0
BBX 6 4 1 7
BITMAP
24
48
D8
D8
ENDCHAR
STARTCHAR quotedblright
ENCODING 148
SWIDTH 530 0
DWIDTH 8 0
BBX 6 4 1 7
BITMAP
6C
6C
48
90
ENDCHAR
STARTCHAR bullet
ENCODING 149
SWIDTH 687 0
DWIDTH 10 0
BBX 4 4 3 2
BITMAP
F0
F0
F0
F0
ENDCHAR
STARTCHAR endash
ENCODING 150
SWIDTH 500 0
DWIDTH 8 0
BBX 6 1 1 4
BITMAP
FC
ENDCHAR
STARTCHAR emdash
ENCODING 151
SWIDTH 1000 0
DWIDTH 15 0
BBX 13 1 1 4
BITMAP
FFF8
ENDCHAR
STARTCHAR trademark
ENCODING 153
SWIDTH 901 0
DWIDTH 13 0
BBX 9 4 2 6
BITMAP
ED80
4A80
9500
9500
ENDCHAR
STARTCHAR afii10106
ENCODING 154
SWIDTH 1000 0
DWIDTH 14 0
BBX 13 8 0 0
BITMAP
1F80
1980
19B0
19D8
3318
3318
6330
C1E0
ENDCHAR
STARTCHAR guilsinglright
ENCODING 155
SWIDTH 386 0
DWIDTH 6 0
BBX 5 5 1 2
BITMAP
20
30
18
60
80
ENDCHAR
STARTCHAR afii10107
ENCODING 156
SWIDTH 1000 0
DWIDTH 14 0
BBX 12 8 1 0
BITMAP
6300
6300
6360
7FB0
C630
C630
C660
C3C0
ENDCHAR
STARTCHAR afii10109
ENCODING 157
SWIDTH 714 0
DWIDTH 10 0
BBX 8 11 1 0
BITMAP
07
1C
00
63
66
6C
70
D8
CC
C6
C3
ENDCHAR
STARTCHAR afii10108
ENCODING 158
SWIDTH 714 0
DWIDTH 10 0
BBX 8 11 1 0
BITMAP
30
7E
30
6E
73
63
63
C6
C6
C6
C6
ENDCHAR
STARTCHAR afii10193
ENCODING 159
SWIDTH 714 0
DWIDTH 10 0
BBX 8 10 1 -2
BITMAP
63
63
63
63
C6
CE
D6
76
30
30
ENDCHAR
STARTCHAR space
ENCODING 160
SWIDTH 343 0
DWIDTH 4 0
BBX 0 0 0 0
BITMAP
ENDCHAR
STARTCHAR afii10062
ENCODING 161
SWIDTH 785 0
DWIDTH 11 0
BBX 9 12 2 0
BITMAP
1E00
0000
C180
C180
C300
6300
6600
6C00
3800
3000
6000
C000
ENDCHAR
STARTCHAR afii10110
ENCODING 162
SWIDTH 571 0
DWIDTH 8 0
BBX 9 12 -1 -2
BITMAP
0E00
0000
3180
3180
3180
3100
3200
3400
3800
3000
6000
C000
ENDCHAR
STARTCHAR afii10057
ENCODING 163
SWIDTH 502 0
DWIDTH 7 0
BBX 6 12 0 -2
BITMAP
0C
0C
0C
0C
0C
18
18
18
18
18
30
E0
ENDCHAR
STARTCHAR currency
ENCODING 164
SWIDTH 687 0
DWIDTH 10 0
BBX 11 10 -1 0
BITMAP
6060
30C0
1F80
1980
3180
3180
3300
3F00
6180
C0C0
ENDCHAR
STARTCHAR afii10050
ENCODING 165
SWIDTH 642 0
DWIDTH 9 0
BBX 9 12 1 0
BITMAP
0180
0180
7F00
6000
6000
6000
6000
C000
C000
C000
C000
C000
ENDCHAR
STARTCHAR brokenbar
ENCODING 166
SWIDTH 259 0
DWIDTH 4 0
BBX 4 12 0 -1
BITMAP
30
30
30
30
30
00
00
C0
C0
C0
C0
C0
ENDCHAR
STARTCHAR section
ENCODING 167
SWIDTH 687 0
DWIDTH 10 0
BBX 8 11 1 -1
BITMAP
1E
31
38
1C
6E
66
76
38
1C
8C
78
ENDCHAR
STARTCHAR afii10023
ENCODING 168
SWIDTH 642 0
DWIDTH 9 0
BBX 8 13 1 0
BITMAP
12
12
00
7F
60
60
60
7E
C0
C0
C0
C0
FE
ENDCHAR
STARTCHAR copyright
ENCODING 169
SWIDTH 834 0
DWIDTH 12 0
BBX 10 10 1 0
BITMAP
1E00
6180
4C80
9240
9040
9040
9240
4C80
6180
1E00
ENDCHAR
STARTCHAR afii10053
ENCODING 170
SWIDTH 785 0
DWIDTH 11 0
BBX 10 10 1 0
BITMAP
0F80
30C0
6000
6000
FC00
C000
C000
C000
E300
7E00
ENDCHAR
STARTCHAR guillemotleft
ENCODING 171
SWIDTH 633 0
DWIDTH 9 0
BBX 9 5 0 2
BITMAP
0880
3300
CC00
6600
2200
ENDCHAR
STARTCHAR logicalnot
ENCODING 172
SWIDTH 687 0
DWIDTH 10 0
BBX 7 4 1 1
BITMAP
FE
02
02
02
ENDCHAR
STARTCHAR hyphen
ENCODING 173
SWIDTH 289 0
DWIDTH 5 0
BBX 4 1 1 4
BITMAP
F0
ENDCHAR
STARTCHAR registered
ENCODING 174
SWIDTH 691 0
DWIDTH 10 0
BBX 8 8 1 2
BITMAP
3C
42
99
95
99
95
42
3C
ENDCHAR
STARTCHAR afii10056
ENCODING 175
SWIDTH 361 0
DWIDTH 5 0
BBX 4 13 1 0
BITMAP
90
90
00
60
60
60
60
60
C0
C0
C0
C0
C0
ENDCHAR
STARTCHAR degree
ENCODING 176
SWIDTH 241 0
DWIDTH 4 0
BBX 4 3 0 7
BITMAP
60
90
60
ENDCHAR
STARTCHAR plusminus
ENCODING 177
SWIDTH 687 0
DWIDTH 10 0
BBX 7 7 1 1
BITMAP
08
08
7E
10
10
00
FE
ENDCHAR
STARTCHAR afii10055
ENCODING 178
SWIDTH 361 0
DWIDTH 5 0
BBX 3 10 1 0
BITMAP
60
60
60
60
60
C0
C0
C0
C0
C0
ENDCHAR
STARTCHAR afii10103
ENCODING 179
SWIDTH 343 0
DWIDTH 5 0
BBX 4 11 1 0
BITMAP
30
60
00
60
60
60
60
C0
C0
C0
C0
ENDCHAR
STARTCHAR afii10098
ENCODING 180
SWIDTH 571 0
DWIDTH 8 0
BBX 7 10 1 0
BITMAP
06
06
7E
60
60
60
C0
C0
C0
C0
ENDCHAR
STARTCHAR mu
ENCODING 181
SWIDTH 681 0
DWIDTH 10 0
BBX 9 10 0 -2
BITMAP
3180
3180
3180
3180
6300
6700
6B00
7300
C000
C000
ENDCHAR
STARTCHAR paragraph
ENCODING 182
SWIDTH 687 0
DWIDTH 10 0
BBX 6 11 2 -1
BITMAP
7C
F4
F4
F4
68
28
28
28
50
50
50
ENDCHAR
STARTCHAR periodcentered
ENCODING 183
SWIDTH 343 0
DWIDTH 10 0
BBX 2 2 4 3
BITMAP
C0
C0
ENDCHAR
STARTCHAR afii10071
ENCODING 184
SWIDTH 612 0
DWIDTH 9 0
BBX 7 11 1 0
BITMAP
24
24
00
1C
66
46
CC
F0
C0
C4
78
ENDCHAR
STARTCHAR afii61352
ENCODING 185
SWIDTH 1142 0
DWIDTH 16 0
BBX 14 10 1 0
BITMAP
7080
7080
5898
58AC
58B4
8D18
8D00
8D78
8700
8700
ENDCHAR
STARTCHAR afii10101
ENCODING 186
SWIDTH 571 0
DWIDTH 8 0
BBX 7 8 1 0
BITMAP
1E
60
60
F8
C0
C0
C4
78
ENDCHAR
STARTCHAR guillemotright
ENCODING 187
SWIDTH 633 0
DWIDTH 9 0
BBX 9 5 0 2
BITMAP
2200
3300
1980
6600
8800
ENDCHAR
STARTCHAR afii10105
ENCODING 188
SWIDTH 407 0
DWIDTH 5 0
BBX 6 13 -1 -2
BITMAP
0C
18
00
18
18
18
18
30
30
30
30
30
E0
ENDCHAR
STARTCHAR afii10054
ENCODING 189
SWIDTH 639 0
DWIDTH 10 0
BBX 8 10 1 0
BITMAP
3E
63
60
70
38
1C
0E
06
C6
7C
ENDCHAR
STARTCHAR afii10102
ENCODING 190
SWIDTH 527 0
DWIDTH 8 0
BBX 6 8 1 0
BITMAP
3C
60
60
70
38
18
18
F0
ENDCHAR
STARTCHAR afii10104
ENCODING 191
SWIDTH 343 0
DWIDTH 5 0
BBX 4 11 1 0
BITMAP
90
90
00
60
60
60
60
C0
C0
C0
C0
ENDCHAR
STARTCHAR afii10017
ENCODING 192
SWIDTH 785 0
DWIDTH 11 0
BBX 9 10 0 0
BITMAP
0180
0380
0780
0D80
1980
3180
3F80
6180
C180
C180
ENDCHAR
STARTCHAR afii10018
ENCODING 193
SWIDTH 714 0
DWIDTH 10 0
BBX 8 10 1 0
BITMAP
7F
60
60
60
7C
C2
C3
C3
C3
FE
ENDCHAR
STARTCHAR afii10019
ENCODING 194
SWIDTH 714 0
DWIDTH 10 0
BBX 9 10 1 0
BITMAP
7F00
6180
6180
6300
7E00
C300
C300
C300
C600
FC00
ENDCHAR
STARTCHAR afii10020
ENCODING 195
SWIDTH 642 0
DWIDTH 9 0
BBX 8 10 1 0
BITMAP
7F
60
60
60
60
C0
C0
C0
C0
C0
ENDCHAR
STARTCHAR afii10021
ENCODING 196
SWIDTH 857 0
DWIDTH 12 0
BBX 12 12 -1 -2
BITMAP
0FF0
0C30
0C30
0C30
0C30
1860
1860
3060
3060
7FF0
C060
C060
ENDCHAR
STARTCHAR afii10022
ENCODING 197
SWIDTH 642 0
DWIDTH 9 0
BBX 8 10 1 0
BITMAP
7F
60
60
60
7E
C0
C0
C0
C0
FE
ENDCHAR
STARTCHAR afii10024
ENCODING 198
SWIDTH 1071 0
DWIDTH 15 0
BBX 14 10 0 0
BITMAP
318C
1998
0DB0
07E0
07C0
0FC0
1B60
3330
6318
C30C
ENDCHAR
STARTCHAR afii10025
ENCODING 199
SWIDTH 642 0
DWIDTH 9 0
BBX 9 10 0 0
BITMAP
1F00
3180
0180
0300
1E00
0300
0300
0300
C600
7C00
ENDCHAR
STARTCHAR afii10026
ENCODING 200
SWIDTH 785 0
DWIDTH 11 0
BBX 9 10 1 0
BITMAP
4380
4380
4680
4680
4C80
9900
9900
B100
E100
E100
ENDCHAR
STARTCHAR afii10027
ENCODING 201
SWIDTH 785 0
DWIDTH 11 0
BBX 9 12 1 0
BITMAP
1E00
0000
4380
4380
4680
4680
4C80
9900
9900
B100
E100
E100
ENDCHAR
STARTCHAR afii10028
ENCODING 202
SWIDTH 785 0
DWIDTH 11 0
BBX 9 10 1 0
BITMAP
6180
6300
6600
6C00
7800
D800
CC00
C600
C300
C180
ENDCHAR
STARTCHAR afii10029
ENCODING 203
SWIDTH 857 0
DWIDTH 12 0
BBX 11 10 0 0
BITMAP
1FE0
1860
1860
1860
1860
30C0
30C0
30C0
60C0
C0C0
ENDCHAR
STARTCHAR afii10030
ENCODING 204
SWIDTH 1000 0
DWIDTH 14 0
BBX 12 10 1 0
BITMAP
78F0
58B0
58B0
5930
4D30
8E60
8E60
8C60
8C60
8060
ENDCHAR
STARTCHAR afii10031
ENCODING 205
SWIDTH 857 0
DWIDTH 12 0
BBX 10 10 1 0
BITMAP
60C0
60C0
60C0
60C0
7FC0
C180
C180
C180
C180
C180
ENDCHAR
STARTCHAR afii10032
ENCODING 206
SWIDTH 857 0
DWIDTH 12 0
BBX 10 10 1 0
BITMAP
0F80
31C0
60C0
60C0
C0C0
C0C0
C180
C180
E300
7C00
ENDCHAR
STARTCHAR afii10033
ENCODING 207
SWIDTH 857 0
DWIDTH 12 0
BBX 10 10 1 0
BITMAP
7FC0
60C0
60C0
60C0
60C0
C180
C180
C180
C180
C180
ENDCHAR
STARTCHAR afii10034
ENCODING 208
SWIDTH 642 0
DWIDTH 9 0
BBX 8 10 1 0
BITMAP
7E
63
63
63
62
FC
C0
C0
C0
C0
ENDCHAR
STARTCHAR afii10035
ENCODING 209
SWIDTH 785 0
DWIDTH 11 0
BBX 10 10 1 0
BITMAP
0F80
30C0
6000
6000
C000
C000
C000
C000
E300
7E00
ENDCHAR
STARTCHAR afii10036
ENCODING 210
SWIDTH 714 0
DWIDTH 10 0
BBX 9 10 1 0
BITMAP
FF80
1800
1800
1800
1800
3000
3000
3000
3000
3000
ENDCHAR
STARTCHAR afii10037
ENCODING 211
SWIDTH 785 0
DWIDTH 11 0
BBX 9 10 2 0
BITMAP
C180
C180
C300
6300
6600
6C00
3800
3000
6000
C000
ENDCHAR
STARTCHAR afii10038
ENCODING 212
SWIDTH 1071 0
DWIDTH 15 0
BBX 13 10 1 0
BITMAP
0300
1FE0
3330
6318
C318
C618
C630
6660
3FC0
0600
ENDCHAR
STARTCHAR afii10039
ENCODING 213
SWIDTH 714 0
DWIDTH 10 0
BBX 10 10 0 0
BITMAP
30C0
30C0
1980
1B00
0C00
0C00
3600
6600
C300
C300
ENDCHAR
STARTCHAR afii10040
ENCODING 214
SWIDTH 857 0
DWIDTH 12 0
BBX 10 12 1 -2
BITMAP
60C0
60C0
60C0
60C0
60C0
C180
C180
C180
C180
FFC0
0180
0180
ENDCHAR
STARTCHAR afii10041
ENCODING 215
SWIDTH 857 0
DWIDTH 12 0
BBX 9 10 2 0
BITMAP
C180
C180
C180
C180
C380
6700
3F00
0300
0300
0300
ENDCHAR
STARTCHAR afii10042
ENCODING 216
SWIDTH 1071 0
DWIDTH 15 0
BBX 13 10 1 0
BITMAP
6318
6318
6318
6318
6318
C630
C630
C630
C630
FFF0
ENDCHAR
STARTCHAR afii10043
ENCODING 217
SWIDTH 1071 0
DWIDTH 15 0
BBX 13 12 1 -2
BITMAP
6318
6318
6318
6318
6318
C630
C630
C630
C630
FFF8
0030
0030
ENDCHAR
STARTCHAR afii10044
ENCODING 218
SWIDTH 785 0
DWIDTH 11 0
BBX 9 10 1 0
BITMAP
F000
3000
3000
3000
3E00
6100
6180
6180
6180
7F00
ENDCHAR
STARTCHAR afii10045
ENCODING 219
SWIDTH 1071 0
DWIDTH 15 0
BBX 13 10 1 0
BITMAP
6018
6018
6018
6018
7C18
C230
C330
C330
C330
FE30
ENDCHAR
STARTCHAR afii10046
ENCODING 220
SWIDTH 714 0
DWIDTH 10 0
BBX 8 10 1 0
BITMAP
60
60
60
60
7C
C2
C3
C3
C3
FE
ENDCHAR
STARTCHAR afii10047
ENCODING 221
SWIDTH 785 0
DWIDTH 11 0
BBX 10 10 0 0
BITMAP
1F80
31C0
00C0
00C0
0FC0
00C0
0180
0180
C700
7C00
ENDCHAR
STARTCHAR afii10048
ENCODING 222
SWIDTH 1142 0
DWIDTH 16 0
BBX 14 10 1 0
BITMAP
60F8
631C
660C
660C
7C0C
CC0C
CC18
CC18
CE30
C7C0
ENDCHAR
STARTCHAR afii10049
ENCODING 223
SWIDTH 785 0
DWIDTH 11 0
BBX 10 10 0 0
BITMAP
1FC0
30C0
30C0
30C0
18C0
0F80
1980
1980
3180
E180
ENDCHAR
STARTCHAR afii10065
ENCODING 224
SWIDTH 714 0
DWIDTH 10 0
BBX 8 8 1 0
BITMAP
1F
63
63
C3
C6
CE
D6
66
ENDCHAR
STARTCHAR afii10066
ENCODING 225
SWIDTH 714 0
DWIDTH 10 0
BBX 10 11 1 0
BITMAP
07C0
1C00
3000
6E00
7300
6300
C300
C300
C600
C600
7800
ENDCHAR
STARTCHAR afii10067
ENCODING 226
SWIDTH 714 0
DWIDTH 10 0
BBX 8 11 1 0
BITMAP
1E
33
33
66
6E
6B
C3
C3
C6
C6
78
ENDCHAR
STARTCHAR afii10068
ENCODING 227
SWIDTH 642 0
DWIDTH 9 0
BBX 7 8 1 0
BITMAP
3C
46
06
1C
70
C0
C4
78
ENDCHAR
STARTCHAR afii10069
ENCODING 228
SWIDTH 714 0
DWIDTH 10 0
BBX 8 11 1 0
BITMAP
1C
06
06
1B
67
63
C3
C3
C6
C6
78
ENDCHAR
STARTCHAR afii10070
ENCODING 229
SWIDTH 642 0
DWIDTH 9 0
BBX 7 8 1 0
BITMAP
1C
66
46
CC
F0
C0
C4
78
ENDCHAR
STARTCHAR afii10072
ENCODING 230
SWIDTH 1000 0
DWIDTH 14 0
BBX 13 8 0 0
BITMAP
6318
3330
1B60
0F80
1EC0
3660
6630
C618
ENDCHAR
STARTCHAR afii10073
ENCODING 231
SWIDTH 642 0
DWIDTH 9 0
BBX 8 8 0 0
BITMAP
1E
23
06
1C
06
06
86
78
ENDCHAR
STARTCHAR afii10074
ENCODING 232
SWIDTH 714 0
DWIDTH 10 0
BBX 8 8 1 0
BITMAP
63
63
63
63
C6
CE
D6
66
ENDCHAR
STARTCHAR afii10075
ENCODING 233
SWIDTH 714 0
DWIDTH 10 0
BBX 8 10 1 0
BITMAP
1C
00
63
63
63
63
C6
CE
D6
66
ENDCHAR
STARTCHAR afii10076
ENCODING 234
SWIDTH 714 0
DWIDTH 10 0
BBX 8 8 1 0
BITMAP
63
66
6C
70
D8
CC
C6
C3
ENDCHAR
STARTCHAR afii10077
ENCODING 235
SWIDTH 714 0
DWIDTH 10 0
BBX 9 8 0 0
BITMAP
1F80
1980
1980
1980
3300
3300
6300
C300
ENDCHAR
STARTCHAR afii10078
ENCODING 236
SWIDTH 857 0
DWIDTH 12 0
BBX 10 8 1 0
BITMAP
71C0
71C0
72C0
5AC0
9D80
9980
9980
8180
ENDCHAR
STARTCHAR afii10079
ENCODING 237
SWIDTH 714 0
DWIDTH 10 0
BBX 8 8 1 0
BITMAP
63
63
63
7F
C6
C6
C6
C6
ENDCHAR
STARTCHAR afii10080
ENCODING 238
SWIDTH 714 0
DWIDTH 10 0
BBX 8 8 1 0
BITMAP
1E
63
63
C3
C3
C6
C6
78
ENDCHAR
STARTCHAR afii10081
ENCODING 239
SWIDTH 714 0
DWIDTH 10 0
BBX 8 8 1 0
BITMAP
6E
73
63
63
C6
C6
C6
C6
ENDCHAR
STARTCHAR afii10082
ENCODING 240
SWIDTH 714 0
DWIDTH 10 0
BBX 9 10 0 -2
BITMAP
3700
3980
3180
3180
6180
6300
6300
7C00
C000
C000
ENDCHAR
STARTCHAR afii10083
ENCODING 241
SWIDTH 571 0
DWIDTH 8 0
BBX 7 8 1 0
BITMAP
1E
60
60
C0
C0
C0
C4
78
ENDCHAR
STARTCHAR afii10084
ENCODING 242
SWIDTH 1071 0
DWIDTH 15 0
BBX 13 8 1 0
BITMAP
6E70
7398
6318
6318
C630
C630
C630
C630
ENDCHAR
STARTCHAR afii10085
ENCODING 243
SWIDTH 571 0
DWIDTH 8 0
BBX 9 10 -1 -2
BITMAP
3180
3180
3180
3100
3200
3400
3800
3000
6000
C000
ENDCHAR
STARTCHAR afii10086
ENCODING 244
SWIDTH 1071 0
DWIDTH 15 0
BBX 13 13 1 -2
BITMAP
0180
0180
0180
3B70
6798
6318
C318
C618
C630
CF30
76C0
0C00
0C00
ENDCHAR
STARTCHAR afii10087
ENCODING 245
SWIDTH 571 0
DWIDTH 8 0
BBX 8 8 0 0
BITMAP
33
33
32
1C
38
4C
CC
CC
ENDCHAR
STARTCHAR afii10088
ENCODING 246
SWIDTH 714 0
DWIDTH 10 0
BBX 8 10 1 -2
BITMAP
63
63
63
63
C6
CE
D6
67
03
03
ENDCHAR
STARTCHAR afii10089
ENCODING 247
SWIDTH 714 0
DWIDTH 10 0
BBX 7 8 2 0
BITMAP
C6
C6
C6
CE
DC
6C
0C
0C
ENDCHAR
STARTCHAR afii10090
ENCODING 248
SWIDTH 1071 0
DWIDTH 15 0
BBX 13 8 1 0
BITMAP
6318
6318
6318
6318
C630
C630
CE70
73B0
ENDCHAR
STARTCHAR afii10091
ENCODING 249
SWIDTH 1071 0
DWIDTH 15 0
BBX 13 10 1 -2
BITMAP
6318
6318
6318
6318
C630
C630
CE70
73B8
0018
0018
ENDCHAR
STARTCHAR afii10092
ENCODING 250
SWIDTH 714 0
DWIDTH 10 0
BBX 8 8 1 0
BITMAP
F0
30
36
3B
63
63
66
3C
ENDCHAR
STARTCHAR afii10093
ENCODING 251
SWIDTH 1000 0
DWIDTH 14 0
BBX 12 8 1 0
BITMAP
6030
6030
6C30
7630
C660
C660
CC60
7860
ENDCHAR
STARTCHAR afii10094
ENCODING 252
SWIDTH 642 0
DWIDTH 9 0
BBX 7 8 1 0
BITMAP
60
60
6C
76
C6
C6
CC
78
ENDCHAR
STARTCHAR afii10095
ENCODING 253
SWIDTH 642 0
DWIDTH 9 0
BBX 8 8 0 0
BITMAP
1E
23
03
1F
03
06
86
78
ENDCHAR
STARTCHAR afii10096
ENCODING 254
SWIDTH 1000 0
DWIDTH 14 0
BBX 12 8 1 0
BITMAP
61E0
6630
6630
7C30
CC30
CC60
CC60
C780
ENDCHAR
STARTCHAR afii10097
ENCODING 255
SWIDTH 642 0
DWIDTH 9 0
BBX 8 8 0 0
BITMAP
3F
63
63
33
1E
36
66
C6
ENDCHAR
STARTCHAR fl
ENCODING -1
SWIDTH 695 0
DWIDTH 10 0
BBX 9 13 1 -2
BITMAP
1F80
3180
3180
FB00
6300
6300
6300
6600
6600
C600
C600
C000
C000
ENDCHAR
STARTCHAR Zcaron
ENCODING -1
SWIDTH 687 0
DWIDTH 9 0
BBX 9 13 0 0
BITMAP
0B00
0600
0000
3F80
0380
0700
0E00
0C00
1800
3800
7000
E000
FE00
ENDCHAR
STARTCHAR oe
ENCODING -1
SWIDTH 1004 0
DWIDTH 14 0
BBX 12 8 1 0
BITMAP
1CE0
6330
6230
C660
C780
C600
C620
7BC0
ENDCHAR
STARTCHAR Ydieresis
ENCODING -1
SWIDTH 681 0
DWIDTH 10 0
BBX 8 13 2 0
BITMAP
24
24
00
C3
C3
C6
C4
C8
D0
60
60
60
60
ENDCHAR
STARTCHAR dotlessi
ENCODING -1
SWIDTH 343 0
DWIDTH 5 0
BBX 3 8 1 0
BITMAP
60
60
60
60
C0
C0
C0
C0
ENDCHAR
STARTCHAR lslash
ENCODING -1
SWIDTH 343 0
DWIDTH 5 0
BBX 6 11 0 0
BITMAP
18
18
18
30
3C
F0
30
60
60
60
60
ENDCHAR
STARTCHAR Lslash
ENCODING -1
SWIDTH 623 0
DWIDTH 9 0
BBX 8 10 0 0
BITMAP
18
18
18
18
1E
F0
30
30
30
3F
ENDCHAR
STARTCHAR fi
ENCODING -1
SWIDTH 695 0
DWIDTH 10 0
BBX 9 13 1 -2
BITMAP
1D80
3300
3000
FF00
6300
6300
6300
6600
6600
C600
C600
C000
C000
ENDCHAR
STARTCHAR OE
ENCODING -1
SWIDTH 1103 0
DWIDTH 16 0
BBX 14 10 1 0
BITMAP
0FFC
3180
6180
6180
C1F8
C300
C300
C300
E300
7FF8
ENDCHAR
STARTCHAR caron
ENCODING -1
SWIDTH 663 0
DWIDTH 10 0
BBX 4 2 4 9
BITMAP
B0
60
ENDCHAR
STARTCHAR ogonek
ENCODING -1
SWIDTH 663 0
DWIDTH 10 0
BBX 3 2 4 -2
BITMAP
80
60
ENDCHAR
STARTCHAR hungarumlaut
ENCODING -1
SWIDTH 663 0
DWIDTH 10 0
BBX 5 2 3 9
BITMAP
D8
90
ENDCHAR
STARTCHAR dotaccent
ENCODING -1
SWIDTH 663 0
DWIDTH 10 0
BBX 2 2 5 9
BITMAP
C0
C0
ENDCHAR
STARTCHAR breve
ENCODING -1
SWIDTH 663 0
DWIDTH 10 0
BBX 5 2 3 9
BITMAP
88
70
ENDCHAR
STARTCHAR tilde
ENCODING -1
SWIDTH 663 0
DWIDTH 10 0
BBX 5 2 3 9
BITMAP
68
B0
ENDCHAR
STARTCHAR circumflex
ENCODING -1
SWIDTH 663 0
DWIDTH 10 0
BBX 4 2 4 9
BITMAP
60
B0
ENDCHAR
STARTCHAR scaron
ENCODING -1
SWIDTH 527 0
DWIDTH 8 0
BBX 6 11 1 0
BITMAP
2C
18
00
3C
60
60
70
38
18
18
F0
ENDCHAR
STARTCHAR ring
ENCODING -1
SWIDTH 663 0
DWIDTH 10 0
BBX 4 3 4 8
BITMAP
60
90
60
ENDCHAR
STARTCHAR florin
ENCODING -1
SWIDTH 687 0
DWIDTH 10 0
BBX 8 11 2 -1
BITMAP
1E
33
30
30
FC
60
60
60
C0
C0
C0
ENDCHAR
STARTCHAR fraction
ENCODING -1
SWIDTH 130 0
DWIDTH 4 0
BBX 4 10 0 0
BITMAP
30
30
30
60
60
60
60
C0
C0
C0
ENDCHAR
STARTCHAR Scaron
ENCODING -1
SWIDTH 639 0
DWIDTH 10 0
BBX 8 13 1 0
BITMAP
16
0C
00
3E
63
60
70
38
1C
0E
06
C6
7C
ENDCHAR
STARTCHAR zcaron
ENCODING -1
SWIDTH 630 0
DWIDTH 8 0
BBX 8 11 0 0
BITMAP
16
0C
00
7F
06
0C
18
30
60
C0
FE
ENDCHAR
ENDFONT
